<mxfile host="app.diagrams.net" modified="2021-03-31T03:46:38.183Z" agent="5.0 (Windows NT 10.0; Win64; x64) AppleWebKit/537.36 (KHTML, like Gecko) Chrome/89.0.4389.90 Safari/537.36" etag="zBilv4BPqpyGSMabnm3F" version="14.4.8" type="github">
  <diagram id="G2pgzEThAq-g6k-lU1-U" name="第 1 页">
    <mxGraphModel dx="782" dy="1121" grid="1" gridSize="10" guides="1" tooltips="1" connect="1" arrows="1" fold="1" page="1" pageScale="1" pageWidth="827" pageHeight="1169" math="0" shadow="0">
      <root>
        <mxCell id="0" />
        <mxCell id="1" parent="0" />
        <mxCell id="HrPkjfhQTcWogxiYHMGN-1" value="&lt;h1&gt;报文加密解密&lt;/h1&gt;" style="text;html=1;strokeColor=none;fillColor=none;spacing=5;spacingTop=-20;whiteSpace=wrap;overflow=hidden;rounded=0;" vertex="1" parent="1">
          <mxGeometry x="10" y="50" width="190" height="120" as="geometry" />
        </mxCell>
        <mxCell id="HrPkjfhQTcWogxiYHMGN-3" value="报文加密流程图" style="swimlane;html=1;childLayout=stackLayout;resizeParent=1;resizeParentMax=0;startSize=40;" vertex="1" parent="1">
          <mxGeometry x="110" y="320" width="960" height="1230" as="geometry" />
        </mxCell>
        <mxCell id="HrPkjfhQTcWogxiYHMGN-4" value="浏览器" style="swimlane;html=1;startSize=40;" vertex="1" parent="HrPkjfhQTcWogxiYHMGN-3">
          <mxGeometry y="40" width="290" height="1190" as="geometry" />
        </mxCell>
        <mxCell id="HrPkjfhQTcWogxiYHMGN-5" value="Actor" style="shape=umlActor;verticalLabelPosition=bottom;verticalAlign=top;html=1;outlineConnect=0;" vertex="1" parent="HrPkjfhQTcWogxiYHMGN-4">
          <mxGeometry x="110" y="100" width="30" height="60" as="geometry" />
        </mxCell>
        <mxCell id="HrPkjfhQTcWogxiYHMGN-6" value="用户操作" style="rounded=1;whiteSpace=wrap;html=1;" vertex="1" parent="HrPkjfhQTcWogxiYHMGN-4">
          <mxGeometry x="80" y="800" width="120" height="60" as="geometry" />
        </mxCell>
        <mxCell id="HrPkjfhQTcWogxiYHMGN-7" value="用户浏览结果" style="rounded=1;whiteSpace=wrap;html=1;" vertex="1" parent="HrPkjfhQTcWogxiYHMGN-4">
          <mxGeometry x="80" y="1030" width="120" height="60" as="geometry" />
        </mxCell>
        <mxCell id="HrPkjfhQTcWogxiYHMGN-8" value="前端" style="swimlane;html=1;startSize=40;" vertex="1" parent="HrPkjfhQTcWogxiYHMGN-3">
          <mxGeometry x="290" y="40" width="310" height="1190" as="geometry" />
        </mxCell>
        <mxCell id="HrPkjfhQTcWogxiYHMGN-9" style="edgeStyle=orthogonalEdgeStyle;rounded=0;orthogonalLoop=1;jettySize=auto;html=1;" edge="1" parent="HrPkjfhQTcWogxiYHMGN-8" source="HrPkjfhQTcWogxiYHMGN-10" target="HrPkjfhQTcWogxiYHMGN-11">
          <mxGeometry relative="1" as="geometry">
            <Array as="points">
              <mxPoint x="150" y="210" />
              <mxPoint x="150" y="210" />
            </Array>
          </mxGeometry>
        </mxCell>
        <mxCell id="HrPkjfhQTcWogxiYHMGN-10" value="解析加密公钥文件" style="rounded=1;whiteSpace=wrap;html=1;" vertex="1" parent="HrPkjfhQTcWogxiYHMGN-8">
          <mxGeometry x="90" y="100" width="120" height="60" as="geometry" />
        </mxCell>
        <mxCell id="HrPkjfhQTcWogxiYHMGN-11" value="使用公钥加密数据" style="rounded=1;whiteSpace=wrap;html=1;" vertex="1" parent="HrPkjfhQTcWogxiYHMGN-8">
          <mxGeometry x="90" y="240" width="120" height="60" as="geometry" />
        </mxCell>
        <mxCell id="HrPkjfhQTcWogxiYHMGN-12" style="edgeStyle=orthogonalEdgeStyle;rounded=0;orthogonalLoop=1;jettySize=auto;html=1;" edge="1" parent="HrPkjfhQTcWogxiYHMGN-8" source="HrPkjfhQTcWogxiYHMGN-13" target="HrPkjfhQTcWogxiYHMGN-14">
          <mxGeometry relative="1" as="geometry" />
        </mxCell>
        <mxCell id="HrPkjfhQTcWogxiYHMGN-13" value="使用公钥解密数据" style="rounded=1;whiteSpace=wrap;html=1;" vertex="1" parent="HrPkjfhQTcWogxiYHMGN-8">
          <mxGeometry x="90" y="520" width="120" height="60" as="geometry" />
        </mxCell>
        <mxCell id="HrPkjfhQTcWogxiYHMGN-14" value="获取临时公钥密钥" style="rounded=1;whiteSpace=wrap;html=1;" vertex="1" parent="HrPkjfhQTcWogxiYHMGN-8">
          <mxGeometry x="90" y="670" width="120" height="60" as="geometry" />
        </mxCell>
        <mxCell id="HrPkjfhQTcWogxiYHMGN-15" value="使用临时公钥加密数据" style="rounded=1;whiteSpace=wrap;html=1;" vertex="1" parent="HrPkjfhQTcWogxiYHMGN-8">
          <mxGeometry x="90" y="800" width="120" height="60" as="geometry" />
        </mxCell>
        <mxCell id="HrPkjfhQTcWogxiYHMGN-16" value="使用临时公钥解析数据" style="rounded=1;whiteSpace=wrap;html=1;" vertex="1" parent="HrPkjfhQTcWogxiYHMGN-8">
          <mxGeometry x="90" y="1030" width="120" height="60" as="geometry" />
        </mxCell>
        <mxCell id="HrPkjfhQTcWogxiYHMGN-17" value="后端&amp;nbsp;" style="swimlane;html=1;startSize=40;" vertex="1" parent="HrPkjfhQTcWogxiYHMGN-3">
          <mxGeometry x="600" y="40" width="360" height="1190" as="geometry" />
        </mxCell>
        <mxCell id="HrPkjfhQTcWogxiYHMGN-18" style="edgeStyle=orthogonalEdgeStyle;rounded=0;orthogonalLoop=1;jettySize=auto;html=1;" edge="1" parent="HrPkjfhQTcWogxiYHMGN-17" source="HrPkjfhQTcWogxiYHMGN-19" target="HrPkjfhQTcWogxiYHMGN-21">
          <mxGeometry relative="1" as="geometry" />
        </mxCell>
        <mxCell id="HrPkjfhQTcWogxiYHMGN-19" value="使用私钥解析请求数据" style="rounded=1;whiteSpace=wrap;html=1;" vertex="1" parent="HrPkjfhQTcWogxiYHMGN-17">
          <mxGeometry x="100" y="240" width="120" height="60" as="geometry" />
        </mxCell>
        <mxCell id="HrPkjfhQTcWogxiYHMGN-20" style="edgeStyle=orthogonalEdgeStyle;rounded=0;orthogonalLoop=1;jettySize=auto;html=1;" edge="1" parent="HrPkjfhQTcWogxiYHMGN-17" source="HrPkjfhQTcWogxiYHMGN-21" target="HrPkjfhQTcWogxiYHMGN-22">
          <mxGeometry relative="1" as="geometry" />
        </mxCell>
        <mxCell id="HrPkjfhQTcWogxiYHMGN-21" value="验证账号密码" style="rounded=1;whiteSpace=wrap;html=1;" vertex="1" parent="HrPkjfhQTcWogxiYHMGN-17">
          <mxGeometry x="100" y="380" width="120" height="60" as="geometry" />
        </mxCell>
        <mxCell id="HrPkjfhQTcWogxiYHMGN-22" value="使用私钥加密响应数据" style="rounded=1;whiteSpace=wrap;html=1;" vertex="1" parent="HrPkjfhQTcWogxiYHMGN-17">
          <mxGeometry x="100" y="520" width="120" height="60" as="geometry" />
        </mxCell>
        <mxCell id="HrPkjfhQTcWogxiYHMGN-23" style="edgeStyle=orthogonalEdgeStyle;rounded=0;orthogonalLoop=1;jettySize=auto;html=1;" edge="1" parent="HrPkjfhQTcWogxiYHMGN-17" source="HrPkjfhQTcWogxiYHMGN-24" target="HrPkjfhQTcWogxiYHMGN-26">
          <mxGeometry relative="1" as="geometry" />
        </mxCell>
        <mxCell id="HrPkjfhQTcWogxiYHMGN-24" value="使用临时私钥解析请求数据" style="rounded=1;whiteSpace=wrap;html=1;" vertex="1" parent="HrPkjfhQTcWogxiYHMGN-17">
          <mxGeometry x="100" y="800" width="120" height="60" as="geometry" />
        </mxCell>
        <mxCell id="HrPkjfhQTcWogxiYHMGN-25" style="edgeStyle=orthogonalEdgeStyle;rounded=0;orthogonalLoop=1;jettySize=auto;html=1;" edge="1" parent="HrPkjfhQTcWogxiYHMGN-17" source="HrPkjfhQTcWogxiYHMGN-26" target="HrPkjfhQTcWogxiYHMGN-27">
          <mxGeometry relative="1" as="geometry" />
        </mxCell>
        <mxCell id="HrPkjfhQTcWogxiYHMGN-26" value="处理请求" style="rounded=1;whiteSpace=wrap;html=1;" vertex="1" parent="HrPkjfhQTcWogxiYHMGN-17">
          <mxGeometry x="100" y="920" width="120" height="60" as="geometry" />
        </mxCell>
        <mxCell id="HrPkjfhQTcWogxiYHMGN-27" value="使用临时私钥加密响应数据" style="rounded=1;whiteSpace=wrap;html=1;" vertex="1" parent="HrPkjfhQTcWogxiYHMGN-17">
          <mxGeometry x="100" y="1030" width="120" height="60" as="geometry" />
        </mxCell>
        <mxCell id="HrPkjfhQTcWogxiYHMGN-28" style="edgeStyle=orthogonalEdgeStyle;rounded=0;orthogonalLoop=1;jettySize=auto;html=1;entryX=0;entryY=0.5;entryDx=0;entryDy=0;" edge="1" parent="HrPkjfhQTcWogxiYHMGN-3" source="HrPkjfhQTcWogxiYHMGN-5" target="HrPkjfhQTcWogxiYHMGN-10">
          <mxGeometry relative="1" as="geometry" />
        </mxCell>
        <mxCell id="HrPkjfhQTcWogxiYHMGN-29" style="edgeStyle=orthogonalEdgeStyle;rounded=0;orthogonalLoop=1;jettySize=auto;html=1;" edge="1" parent="HrPkjfhQTcWogxiYHMGN-3" source="HrPkjfhQTcWogxiYHMGN-11" target="HrPkjfhQTcWogxiYHMGN-19">
          <mxGeometry relative="1" as="geometry" />
        </mxCell>
        <mxCell id="HrPkjfhQTcWogxiYHMGN-30" style="edgeStyle=orthogonalEdgeStyle;rounded=0;orthogonalLoop=1;jettySize=auto;html=1;" edge="1" parent="HrPkjfhQTcWogxiYHMGN-3" source="HrPkjfhQTcWogxiYHMGN-22" target="HrPkjfhQTcWogxiYHMGN-13">
          <mxGeometry relative="1" as="geometry" />
        </mxCell>
        <mxCell id="HrPkjfhQTcWogxiYHMGN-31" style="edgeStyle=orthogonalEdgeStyle;rounded=0;orthogonalLoop=1;jettySize=auto;html=1;" edge="1" parent="HrPkjfhQTcWogxiYHMGN-3" source="HrPkjfhQTcWogxiYHMGN-15" target="HrPkjfhQTcWogxiYHMGN-24">
          <mxGeometry relative="1" as="geometry" />
        </mxCell>
        <mxCell id="HrPkjfhQTcWogxiYHMGN-32" style="edgeStyle=orthogonalEdgeStyle;rounded=0;orthogonalLoop=1;jettySize=auto;html=1;" edge="1" parent="HrPkjfhQTcWogxiYHMGN-3" source="HrPkjfhQTcWogxiYHMGN-27" target="HrPkjfhQTcWogxiYHMGN-16">
          <mxGeometry relative="1" as="geometry" />
        </mxCell>
        <mxCell id="HrPkjfhQTcWogxiYHMGN-33" style="edgeStyle=orthogonalEdgeStyle;rounded=0;orthogonalLoop=1;jettySize=auto;html=1;" edge="1" parent="HrPkjfhQTcWogxiYHMGN-3" source="HrPkjfhQTcWogxiYHMGN-6" target="HrPkjfhQTcWogxiYHMGN-15">
          <mxGeometry relative="1" as="geometry" />
        </mxCell>
        <mxCell id="HrPkjfhQTcWogxiYHMGN-34" style="edgeStyle=orthogonalEdgeStyle;rounded=0;orthogonalLoop=1;jettySize=auto;html=1;" edge="1" parent="HrPkjfhQTcWogxiYHMGN-3" source="HrPkjfhQTcWogxiYHMGN-16" target="HrPkjfhQTcWogxiYHMGN-7">
          <mxGeometry relative="1" as="geometry" />
        </mxCell>
        <mxCell id="HrPkjfhQTcWogxiYHMGN-35" style="edgeStyle=orthogonalEdgeStyle;rounded=0;orthogonalLoop=1;jettySize=auto;html=1;entryX=0.5;entryY=0;entryDx=0;entryDy=0;" edge="1" parent="HrPkjfhQTcWogxiYHMGN-3" source="HrPkjfhQTcWogxiYHMGN-14" target="HrPkjfhQTcWogxiYHMGN-6">
          <mxGeometry relative="1" as="geometry">
            <mxPoint x="140" y="800" as="targetPoint" />
          </mxGeometry>
        </mxCell>
        <mxCell id="HrPkjfhQTcWogxiYHMGN-36" value="输入账号密码" style="text;html=1;align=center;verticalAlign=middle;resizable=0;points=[];autosize=1;" vertex="1" parent="1">
          <mxGeometry x="265" y="460" width="90" height="20" as="geometry" />
        </mxCell>
      </root>
    </mxGraphModel>
  </diagram>
</mxfile>
